<svg width="26" height="38" viewBox="0 0 26 38" fill="none" xmlns="http://www.w3.org/2000/svg">
<path fill-rule="evenodd" clip-rule="evenodd" d="M13 0C5.83984 0 0 5.74328 0 12.785C0 14.7827 0.823785 17.0745 1.94097 19.5771C3.05816 22.0797 4.49696 24.7377 5.95833 27.2126C8.88108 32.1679 11.8264 36.3131 11.8264 36.3131L13 38L14.1736 36.3131C14.1736 36.3131 17.1189 32.1679 20.0417 27.2126C21.503 24.7377 22.9418 22.0797 24.059 19.5771C25.1762 17.0745 26 14.7827 26 12.785C26 5.74328 20.1602 0 13 0ZM13 2.84112C18.6029 2.84112 23.1111 7.27483 23.1111 12.785C23.1111 13.9226 22.4905 16.0756 21.441 18.4229C20.3915 20.7702 18.9414 23.3727 17.5139 25.7921C15.3078 29.5375 13.913 31.5666 13.07 32.793L13 32.8949L12.93 32.7931L12.93 32.7931C12.087 31.5666 10.6922 29.5375 8.48611 25.7921C7.05859 23.3727 5.60851 20.7702 4.55903 18.4229C3.50955 16.0756 2.88889 13.9226 2.88889 12.785C2.88889 7.27483 7.39714 2.84112 13 2.84112ZM10.1111 12.785C10.1111 11.2147 11.4032 9.94392 13 9.94392C14.5968 9.94392 15.8889 11.2147 15.8889 12.785C15.8889 14.3554 14.5968 15.6262 13 15.6262C11.4032 15.6262 10.1111 14.3554 10.1111 12.785Z" fill="#F6B76C"/>
</svg>
