<svg width="73" height="20" viewBox="0 0 73 20" fill="none" xmlns="http://www.w3.org/2000/svg">
<path d="M8.906 19.312C7.12067 19.312 5.578 18.922 4.278 18.142C2.99533 17.3447 1.99867 16.244 1.288 14.84C0.577333 13.4187 0.222 11.772 0.222 9.9C0.222 8.04533 0.577333 6.416 1.288 5.012C1.99867 3.59067 2.99533 2.48133 4.278 1.684C5.578 0.886666 7.12067 0.488 8.906 0.488C10.986 0.488 12.676 0.990666 13.976 1.996C15.2933 2.984 16.134 4.37067 16.498 6.156H14.08C13.8027 5.02933 13.2307 4.128 12.364 3.452C11.5147 2.75867 10.362 2.412 8.906 2.412C7.606 2.412 6.47067 2.71533 5.5 3.322C4.52933 3.91133 3.77533 4.76933 3.238 5.896C2.718 7.00533 2.458 8.34 2.458 9.9C2.458 11.46 2.718 12.8033 3.238 13.93C3.77533 15.0393 4.52933 15.8973 5.5 16.504C6.47067 17.0933 7.606 17.388 8.906 17.388C10.362 17.388 11.5147 17.0587 12.364 16.4C13.2307 15.724 13.8027 14.8313 14.08 13.722H16.498C16.134 15.4727 15.2933 16.842 13.976 17.83C12.676 18.818 10.986 19.312 8.906 19.312ZM19.6369 19V0.799999H25.2269C28.4336 0.799999 30.7909 1.61467 32.2989 3.244C33.8242 4.87333 34.5869 7.10933 34.5869 9.952C34.5869 12.7427 33.8242 14.9527 32.2989 16.582C30.7909 18.194 28.4336 19 25.2269 19H19.6369ZM21.8209 17.18H25.1749C26.9429 17.18 28.3469 16.894 29.3869 16.322C30.4442 15.7327 31.1982 14.9007 31.6489 13.826C32.0996 12.734 32.3249 11.4427 32.3249 9.952C32.3249 8.42667 32.0996 7.118 31.6489 6.026C31.1982 4.934 30.4442 4.09333 29.3869 3.504C28.3469 2.91467 26.9429 2.62 25.1749 2.62H21.8209V17.18ZM37.7404 19V0.799999H40.2884L46.8404 13.488L53.3404 0.799999H55.9144V19H53.7304V4.7L47.6464 16.4H46.0084L39.9244 4.726V19H37.7404ZM58.8181 19L64.3821 9.822L58.8181 0.799999H61.2881L65.7601 8.08L70.0241 0.799999H72.4681L66.9041 9.926L72.4941 19H70.0241L65.5261 11.694L61.2881 19H58.8181Z" fill="#333333"/>
</svg>
