<svg width="196" height="54" viewBox="0 0 196 54" fill="none" xmlns="http://www.w3.org/2000/svg">
<g filter="url(#filter0_d_18711_596)">
<path d="M191.7 37.4V45.1H170.9V0.400002H191.7V8H178.5V18.8H189V26.5H178.5V37.4H191.7ZM158.9 0.400002H166.5V45.1H158.9V23.1L155.9 34.5H148.5L145.5 23.1V45.1H137.9V0.400002H145.5L152.3 22L158.9 0.400002ZM127 8H121.5V37.3H127V8ZM130 0.400002C132.5 0.400002 134.7 2.5 134.7 5.1V40.4C134.7 43 132.5 45.1 130 45.1H118.6C116 45.1 113.9 42.9 113.9 40.4V5.1C113.9 2.5 116 0.400002 118.6 0.400002H130ZM102 28.6L109.7 26.8V40.4C109.7 43 107.5 45.1 105 45.1H93.6C91 45.1 88.9 42.9 88.9 40.4V5.1C88.9 2.5 91 0.400002 93.6 0.400002H105C107.5 0.400002 109.7 2.5 109.7 5.1V14.2L102 16V8H96.5V37.3H102V28.6ZM85.2 37.4V45.1H67V0.400002H74.6V37.4H85.2ZM63.8 37.4V45.1H43V0.400002H63.8V8H50.6V18.8H61.1V26.5H50.6V37.4H63.8ZM31.6 0.400002H39.3L38 45.1H23.5L21.5 26.6L19.5 45.1H5L4 0.400002H11.6L12.2 37.4H13L17.8 0.400002H25.4L30.3 37.4H31.1L31.6 0.400002Z" fill="#81B3D3"/>
<path d="M178.5 37.9H191.2V44.6H171.4V0.900002H191.2V7.5H178.5H178V8V18.8V19.3H178.5H188.5V26H178.5H178V26.5V37.4V37.9H178.5ZM158.416 22.9728L155.515 34H148.885L145.984 22.9728L145 23.1V44.6H138.4V0.900002H145.133L151.823 22.1501L152.307 23.6877L152.778 22.1461L159.27 0.900002H166V44.6H159.4V23.1L158.416 22.9728ZM127.5 8V7.5H127H121.5H121V8V37.3V37.8H121.5H127H127.5V37.3V8ZM102.5 15.3696V8V7.5H102H96.5H96V8V37.3V37.8H96.5H102H102.5V37.3V28.9966L109.2 27.4304V40.4C109.2 42.717 107.231 44.6 105 44.6H93.6C91.283 44.6 89.4 42.6308 89.4 40.4V5.1C89.4 2.77615 91.2761 0.900002 93.6 0.900002H105C107.231 0.900002 109.2 2.783 109.2 5.1V13.8034L102.5 15.3696ZM74.6 37.9H84.7V44.6H67.5V0.900002H74.1V37.4V37.9H74.6ZM50.6 37.9H63.3V44.6H43.5V0.900002H63.3V7.5H50.6H50.1V8V18.8V19.3H50.6H60.6V26H50.6H50.1V26.5V37.4V37.9H50.6ZM21.0029 26.5463L19.0511 44.6H5.48894L4.51131 0.900002H11.108L11.7001 37.4081L11.708 37.9H12.2H13H13.4393L13.4958 37.4643L18.2393 0.900002H24.9618L29.8043 37.4656L29.8619 37.9H30.3H31.1H31.5933L31.6 37.4068L32.0933 0.900002H38.7852L37.5143 44.6H23.9489L21.9971 26.5463H21.0029ZM130 0.900002C132.231 0.900002 134.2 2.783 134.2 5.1V40.4C134.2 42.717 132.231 44.6 130 44.6H118.6C116.283 44.6 114.4 42.6308 114.4 40.4V5.1C114.4 2.77615 116.276 0.900002 118.6 0.900002H130Z" stroke="black"/>
</g>
<defs>
<filter id="filter0_d_18711_596" x="0" y="0.400002" width="195.7" height="52.7" filterUnits="userSpaceOnUse" color-interpolation-filters="sRGB">
<feFlood flood-opacity="0" result="BackgroundImageFix"/>
<feColorMatrix in="SourceAlpha" type="matrix" values="0 0 0 0 0 0 0 0 0 0 0 0 0 0 0 0 0 0 127 0" result="hardAlpha"/>
<feOffset dy="4"/>
<feGaussianBlur stdDeviation="2"/>
<feComposite in2="hardAlpha" operator="out"/>
<feColorMatrix type="matrix" values="0 0 0 0 0 0 0 0 0 0 0 0 0 0 0 0 0 0 0.25 0"/>
<feBlend mode="normal" in2="BackgroundImageFix" result="effect1_dropShadow_18711_596"/>
<feBlend mode="normal" in="SourceGraphic" in2="effect1_dropShadow_18711_596" result="shape"/>
</filter>
</defs>
</svg>
